<svg width="111" height="59" viewBox="0 0 111 59" fill="none" xmlns="http://www.w3.org/2000/svg">
<path d="M31.075 7.56853L46.2178 24.1725H66.7729C72.9275 24.1725 78.8299 26.6173 83.1818 30.9692L111 58.7875H90.1345C83.9348 58.7875 77.9929 56.3067 73.6338 51.8983L46.2178 24.1725H31.2458C24.4286 24.1725 17.9563 21.1748 13.5471 15.9754L0 0H13.9291C20.4543 0 26.678 2.74725 31.075 7.56853Z" fill="#D9D9D9"/>
<path d="M92.6985 -5.34058e-05L75.159 19.2319C72.2676 22.4023 68.175 24.2088 63.8841 24.2088H46.4111L57.7984 10.7805C63.5971 3.94235 72.1093 -5.34058e-05 81.0751 -5.34058e-05H92.6985Z" fill="#D9D9D9"/>
<path d="M46.4112 23.979L36.526 34.818C32.129 39.6393 25.9053 42.3865 19.3801 42.3865H11.216L23.35 28.0776C25.5546 25.4779 28.7908 23.979 32.1994 23.979H46.4112Z" fill="#D9D9D9"/>
</svg>
